PathFileType	4	(X/Y/Z)	G:\GRF\jawan data\CompiledGRF\03. Mohit Kumar\0231~ac~Walking 05_markers.trc
DataRate	CameraRate	NumFrames	NumMarkers	Units	OrigDataRate	OrigDataStartFrame	OrigNumFrames
100.000000	100.000000	4	18	mm	100.000000	694	926
Frame#	Time	c7			r should			l should			sacrum			r asis			r bar 1			r knee 1			r bar 2			r mall			r heel			r met			l asis			l bar 1			l knee 1			l bar 2			l mall			l heel			l met			
		X1	Y1	Z1	X2	Y2	Z2	X3	Y3	Z3	X4	Y4	Z4	X5	Y5	Z5	X6	Y6	Z6	X7	Y7	Z7	X8	Y8	Z8	X9	Y9	Z9	X10	Y10	Z10	X11	Y11	Z11	X12	Y12	Z12	X13	Y13	Z13	X14	Y14	Z14	X15	Y15	Z15	X16	Y16	Z16	X17	Y17	Z17	X18	Y18	Z18	

695	6.94	nan	nan	nan	-809.977783203125	1453.29296875	61.35943222045898	-777.0241088867188	1455.204711914063	405.8983154296875	-665.8355712890625	1041.868408203125	242.1773681640625	-840.52099609375	1003.309265136719	106.689079284668	-701.7743530273438	607.3034057617188	33.16088104248047	-710.4557495117188	516.872802734375	69.58891296386719	-474.0742797851563	296.2521362304688	42.93292236328125	-403.7985229492188	177.6775817871094	97.18450927734375	-346.9835815429688	198.5372467041016	146.0276947021484	-463.1453857421875	47.26408767700195	123.8255081176758	-857.255126953125	1025.3193359375	354.8788757324219	-899.6605224609375	604.9420776367188	415.6079406738281	-930.3897094726563	528.091064453125	353.2772216796875	-916.658203125	244.5231323242188	395.8554077148438	-914.2427978515625	77.49971771240234	322.90771484375	nan	nan	nan	-1057.085693359375	46.11042022705078	297.0267639160156	
696	6.95	nan	nan	nan	-819.8749389648438	1454.725952148438	62.86311340332031	-787.35546875	1456.22509765625	407.4060974121094	-675.6924438476563	1042.451904296875	244.3064727783203	-849.62841796875	1004.101623535156	108.1348266601563	-718.5135498046875	605.8180541992188	33.13641357421875	-729.1146240234375	515.5552368164063	69.22123718261719	-490.3520812988281	299.6383056640625	42.67734909057617	-417.074951171875	184.0841522216797	97.3563232421875	-359.749755859375	208.3726959228516	145.9213714599609	-470.4791870117188	51.44694519042969	123.7081909179688	-867.033203125	1026.22216796875	356.4105224609375	-905.5645141601563	604.81689453125	416.5286865234375	-935.4996948242188	527.8270263671875	353.9326171875	-918.3642578125	244.1094207763672	396.0947265625	-914.5885009765625	77.472900390625	322.8207702636719	nan	nan	nan	-1057.3818359375	45.53628921508789	296.8539733886719	
697	6.96	nan	nan	nan	-828.78369140625	1455.728149414063	64.14714813232422	-797.697021484375	1457.077026367188	408.8486633300781	-685.0704345703125	1043.108642578125	246.2370147705078	-858.5582275390625	1004.882690429688	109.5355606079102	-735.507080078125	604.3778076171875	33.32759094238281	-748.4288330078125	514.46923828125	69.16770172119141	-507.2063293457031	303.3358154296875	42.63610076904297	-430.4902648925781	190.9826354980469	97.98194122314453	-374.038818359375	216.4892730712891	146.2778778076172	-480.7729797363281	56.49219512939453	122.1418991088867	-876.51806640625	1027.094482421875	357.9133605957031	-911.689697265625	604.9595336914063	417.5103454589844	-940.1130981445313	527.6415405273438	354.6199951171875	-919.29052734375	243.8416442871094	396.47216796875	-914.6932373046875	77.41977691650391	322.8615112304688	nan	nan	nan	-1057.636474609375	45.03224182128906	296.8265991210938	
698	6.97	nan	nan	nan	-837.4483642578125	1456.568359375	65.31613922119141	-807.9925537109375	1457.859985351563	410.1724243164063	-693.79248046875	1044.0478515625	247.9110717773438	-867.400390625	1005.730651855469	110.9228286743164	-752.7689819335938	603.2913208007813	33.81909561157227	-768.4342651367188	513.852294921875	69.03043365478516	-523.9325561523438	307.1895446777344	42.96263122558594	-444.322021484375	197.7841491699219	99.05303955078125	-390.3670654296875	222.8163604736328	147.6324768066406	-493.8340148925781	61.87379455566406	119.4799652099609	-885.6697387695313	1027.9921875	359.37353515625	-917.3970336914063	605.126953125	418.3711853027344	-944.1714477539063	527.419189453125	355.4225463867188	-919.9645385742188	243.6203308105469	397.001220703125	-914.7998046875	77.37958526611328	322.9532775878906	nan	nan	nan	-1057.897583007813	44.7132568359375	296.8133239746094	
